# AST/ASF file generated using VICON BodyLanguage
# -----------------------------------------------
:version 1.10
:name VICON
:units
  mass 1.0
  length 0.45
  angle deg
:documentation
   .ast/.asf automatically generated from VICON data using
   VICON BodyBuilder and BodyLanguage model FoxedUp or BRILLIANT.MOD
:root
   order TX TY TZ RX RY RZ
   axis XYZ
   position 0 0 0  
   orientation 0 0 0 
:bonedata
  begin
     id 1 
     name lhipjoint
     direction 0.62366 -0.717238 0.310833 
     length 2.53602 
     axis 0 0 0  XYZ
  end
  begin
     id 2 
     name lfemur
     direction 0.34202 -0.939693 0  
     length 7.40817  
     axis 0 0 20  XYZ
    dof rx ry rz
    limits (-160.0 20.0)
           (-70.0 70.0)
           (-60.0 70.0)
  end
  begin
     id 3 
     name ltibia
     direction 0.34202 -0.939693 0   
     length 7.7045   
     axis 0 0 20   XYZ
    dof rx
    limits (-10.0 170.0)
  end
  begin
     id 4 
     name lfoot
     direction 0.0673888 -0.185149 0.980397   
     length 2.09456   
     axis -90 7.62852e-016 20   XYZ
    dof rx rz
    limits (-45.0 90.0)
           (-70.0 20.0)
  end
  begin
     id 5 
     name ltoes
     direction 1.53575e-011 -4.21994e-011 1   
     length 1.05543   
     axis -90 7.62852e-016 20   XYZ
    dof rx
    limits (-90.0 20.0)
  end
  begin
     id 6 
     name rhipjoint
     direction -0.489018 -0.800347 0.346851   
     length 2.27268  
     axis 0 0 0  XYZ 
  end
  begin
     id 7 
     name rfemur
     direction -0.34202 -0.939693 0   
     length 7.55487   
     axis 0 0 -20   XYZ
    dof rx ry rz
    limits (-160.0 20.0)
           (-70.0 70.0)
           (-70.0 60.0)
  end
  begin
     id 8 
     name rtibia
     direction -0.34202 -0.939693 0   
     length 7.78969   
     axis 0 0 -20   XYZ
    dof rx
    limits (-10.0 170.0)
 end
 begin
     id 9 
     name rfoot
     direction -0.0859318 -0.236096 0.967923   
     length 2.19143  
     axis -90 -7.62852e-016 -20   XYZ
    dof rx rz
    limits (-45.0 90.0)
           (-20.0 70.0)
  end
  begin
     id 10 
     name rtoes
     direction -1.53538e-011 -4.21989e-011 1   
     length 1.09845   
     axis -90 -7.62852e-016 -20   XYZ
    dof rx
    limits (-90.0 20.0)
  end
  begin
     id 11 
     name lowerback
     direction -0.00762546 0.998978 -0.0445553   
     length 1.98161   
     axis 0 0 0   XYZ
    dof rx ry rz
    limits (-20.0 45.0)
           (-30.0 30.0)
           (-30.0 30.0)
  end
  begin
     id 12 
     name upperback
     direction 0.0422361 0.998867 -0.0219156   
     length 1.97558   
     axis 0 0 0   XYZ
    dof rx ry rz
    limits (-20.0 45.0)
           (-30.0 30.0)
           (-30.0 30.0)
  end
  begin
     id 13 
     name thorax
     direction 0.0442465 0.999021 7.47603e-005   
     length 1.97799   
     axis 0 0 0   XYZ
    dof rx ry rz
    limits (-20.0 45.0)
           (-30.0 30.0)
           (-30.0 30.0)
  end
  begin
     id 14 
     name lowerneck
     direction 0.00312169 0.984641 0.174564   
     length 1.78995   
     axis 0 0 0   XYZ
    dof rx ry rz
    limits (-20.0 45.0)
           (-30.0 30.0)
           (-30.0 30.0)
  end
  begin
     id 15 
     name upperneck
     direction -0.0383028 0.985255 -0.166749   
     length 1.83053   
     axis 0 0 0   XYZ
    dof rx ry rz
    limits (-20.0 45.0)
           (-30.0 30.0)
           (-30.0 30.0)
  end
  begin
     id 16
     name head
     direction -0.0129546 0.997059 -0.0755386  
     length 1.84088  
     axis 0 0 0   XYZ
    dof rx ry rz
    limits (-20.0 45.0)
           (-30.0 30.0)
           (-30.0 30.0)
  end
  begin
     id 17 
     name lclavicle
     direction 0.912857 0.370519 -0.171488  
     length 3.51279  
     axis 0 0 0   XYZ
    dof ry rz
    limits (-20.0 10.0)
           (0.0 20.0)
  end
  begin
     id 18 
     name lhumerus
     direction 1 -4.48962e-011 3.64361e-027   
     length 4.95663   
     axis 180 -30 -90   XYZ
    dof rx ry rz
    limits (-60.0 90.0)
           (-90.0 90.0)
           (-90.0 90.0)
  end
  begin
     id 19
     name lradius
     direction 1 -4.48974e-011 5.97202e-027   
     length 3.38177   
     axis 180 -30 -90   XYZ
    dof rx
    limits (-10.0 170.0)
  end
  begin
     id 20
     name lwrist
     direction 1 -4.4896e-011 9.83288e-027   
     length 1.69088   
     axis -9.31221e-015 90 90   XYZ
    dof ry
    limits (-180.0 0.0)
 end
  begin
     id 21 
     name lhand
     direction 1 -4.4902e-011 1.96551e-026   
     length 0.662909   
     axis -1.25475e-014 90 90   XYZ
    dof rx rz
    limits (-90.0 90.0)
           (-45.0 45.0)
  end
  begin
     id 22 
     name lfingers
     direction 1 -4.48971e-011 3.93277e-026   
     length 0.534454   
     axis -2.50945e-014 90 90   XYZ
    dof rx
    limits (0.0 90.0)
  end
  begin
     id 23
     name lthumb
     direction 0.707107 -6.34933e-011 0.707107   
     length 0.767373   
     axis -90 45 -4.80359e-014   XYZ
    dof rx rz
    limits (-45.0 45.0)
           (-45.0 45.0)
  end
  begin
     id 24 
     name rclavicle
     direction -0.900919 0.395364 -0.178976   
     length 3.40627  
     axis 0 0 0   XYZ 
    dof ry rz
    limits (-10.0 20.0)
           (-20.0 0.0)
  end
  begin
     id 25 
     name rhumerus
     direction -1 -4.48969e-011 1.03875e-027  
     length 5.08365   
     axis 180 30 90   XYZ
    dof rx ry rz
    limits (-90.0 60.0)
           (-90.0 90.0)
           (-90.0 90.0)
  end
  begin
     id 26 
     name rradius
     direction -1 -4.48951e-011 5.02733e-027   
     length 3.35984   
     axis 180 30 90   XYZ
    dof rx
    limits (-10.0 170.0)
  end
  begin
     id 27 
     name rwrist
     direction -1 -4.49011e-011 9.82828e-027   
     length 1.67992   
     axis -9.31221e-015 -90 -90   XYZ
    dof ry
    limits (-180.0 0.0)
  end
  begin
     id 28
     name rhand
     direction -1 -4.48894e-011 1.96774e-026   
     length 0.820764   
     axis -1.25475e-014 -90 -90   XYZ
    dof rx rz
    limits (-90.0 90.0)
           (-45.0 45.0)
  end
  begin
     id 29
     name rfingers
     direction -1 -4.49095e-011 3.92833e-026   
     length 0.661721   
     axis -2.50945e-014 -90 -90   XYZ
    dof rx
    limits (0.0 90.0)
  end
  begin
     id 30
     name rthumb
     direction -0.707107 -6.34881e-011 0.707107   
     length 0.950103   
     axis -90 -45 4.80359e-014   XYZ
    dof rx rz
    limits (-45.0 45.0)
           (-45.0 45.0)
  end
:hierarchy
  begin
    root lhipjoint rhipjoint lowerback
    lhipjoint lfemur
    lfemur ltibia
    ltibia lfoot
    lfoot ltoes
    rhipjoint rfemur
    rfemur rtibia
    rtibia rfoot
    rfoot rtoes
    lowerback upperback
    upperback thorax
    thorax lowerneck lclavicle rclavicle
    lowerneck upperneck
    upperneck head
    lclavicle lhumerus
    lhumerus lradius
    lradius lwrist
    lwrist lhand lthumb
    lhand lfingers
    rclavicle rhumerus
    rhumerus rradius
    rradius rwrist
    rwrist rhand rthumb
    rhand rfingers
  end

#!OML:ASF I:\golf\golf\golf 2\Subject 1\2002-09-07\Subject1.ASF
:FULLY-SPECIFIED
:DEGREES
18
root -7.07376 17.6409 2.03642 -56.1179 86.9201 -72.1109
lowerback 1.4782 1.62819 -2.06766
upperback 1.95036 2.19829 4.1242
thorax 0.938213 1.07911 5.40585
lowerneck -13.9231 -1.92984 1.15873
upperneck 41.5446 0.549969 -3.74717
head 17.7174 0.564158 -1.62916
rclavicle -4.37326e-015 2.06736e-014
rhumerus -5.3396 -1.48775 -102.256
rradius 18.7499
rwrist -32.5962
rhand -15.4636 -9.13578
rfingers 7.12502
rthumb 10.7176 -38.8424
lclavicle -4.37326e-015 2.06736e-014
lhumerus -11.1612 -41.172 110.542
lradius 25.852
lwrist 43.6013
lhand -12.9662 67.4048
lfingers 7.12502
lthumb -166.874 83.0283
rfemur -30.883 -2.30185 10.7354
rtibia 32.1375
rfoot -10.8361 -7.82765
rtoes -6.91321
lfemur -29.1328 8.56043 -8.20127
ltibia 32.0443
lfoot -13.4474 -2.35814
ltoes -23.0153
19
root -7.07436 17.6423 2.03416 -56.8019 86.913 -72.8001
lowerback 1.49896 1.62624 -2.08366
upperback 1.94937 2.19647 4.1639
thorax 0.923744 1.07858 5.45596
lowerneck -13.9606 -1.95051 1.11895
upperneck 41.5999 0.549459 -3.76856
head 17.7603 0.556726 -1.63329
rclavicle -4.37326e-015 -2.22639e-014
rhumerus -5.29763 -1.77152 -102.23
rradius 18.7001
rwrist -32.2709
rhand -15.3779 -9.19402
rfingers 7.12502
rthumb 10.8003 -38.8963
lclavicle -4.37326e-015 -2.22639e-014
lhumerus -11.0783 -41.0759 110.53
lradius 25.7502
lwrist 43.2374
lhand -12.7417 67.3335
lfingers 7.12502
lthumb -166.658 83.1137
rfemur -30.8596 -2.34919 10.7629
rtibia 32.0857
rfoot -10.8081 -7.83298
rtoes -6.82735
lfemur -29.1691 8.51394 -8.17807
ltibia 32.0499
lfoot -13.4513 -2.3591
ltoes -23.089
20
root -7.07475 17.642 2.03174 -57.2967 86.9042 -73.3061
lowerback 1.50455 1.62 -2.08009
upperback 1.92998 2.18858 4.17263
thorax 0.901297 1.07543 5.46258
lowerneck -13.916 -1.96712 1.14415
upperneck 41.6112 0.543919 -3.82257
head 17.7548 0.552976 -1.66344
rclavicle -3.97569e-016 3.18055e-015
rhumerus -5.34202 -1.86445 -102.265
rradius 18.759
rwrist -32.2064
rhand -15.393 -9.18471
rfingers 7.12502
rthumb 10.7857 -38.8878
lclavicle -3.97569e-016 3.18055e-015
lhumerus -11.0174 -40.8163 110.504
lradius 25.6253
lwrist 42.6895
lhand -12.4224 67.3991
lfingers 7.12502
lthumb -166.35 83.0684
rfemur -30.8494 -2.40896 10.7888
rtibia 32.0407
rfoot -10.7659 -7.78439
rtoes -6.70948
lfemur -29.2037 8.48001 -8.16059
ltibia 32.0485
lfoot -13.4401 -2.35943
ltoes -23.1774
21
root -7.07467 17.6437 2.0286 -57.3543 86.9279 -73.3403
lowerback 1.54181 1.60962 -2.11661
upperback 1.9216 2.17466 4.184
thorax 0.871623 1.06878 5.49414
lowerneck -13.8786 -1.97811 1.08403
upperneck 41.6123 0.548698 -3.81883
head 17.7462 0.546902 -1.64931
rclavicle -2.18663e-014 -4.37326e-014
rhumerus -5.4021 -1.78291 -102.272
rradius 18.853
rwrist -32.345
rhand -15.3686 -9.22951
rfingers 7.12502
rthumb 10.8092 -38.9314
lclavicle -2.18663e-014 -4.37326e-014
lhumerus -11.0387 -40.7344 110.484
lradius 25.6424
lwrist 42.437
lhand -12.405 67.8137
lfingers 7.12502
lthumb -166.333 82.655
rfemur -30.7963 -2.36871 10.7367
rtibia 32.0118
rfoot -10.7762 -7.79049
rtoes -6.61315
lfemur -29.1602 8.44354 -8.18119
ltibia 32.024
lfoot -13.4283 -2.38618
ltoes -22.8102
22
root -7.075 17.6464 2.02581 -56.9388 86.9994 -72.9011
lowerback 1.55228 1.58542 -2.19915
upperback 1.95043 2.14121 4.19271
thorax 0.896083 1.05006 5.55126
lowerneck -13.9305 -1.95852 0.970375
upperneck 41.6429 0.600133 -3.77167
head 17.7813 0.555789 -1.59865
rclavicle -1.59028e-014 1.59028e-015
rhumerus -5.37739 -1.80472 -102.272
rradius 18.8996
rwrist -32.4113
rhand -15.4618 -9.4365
rfingers 7.12502
rthumb 10.7193 -39.143
lclavicle -1.59028e-014 1.59028e-015
lhumerus -10.9599 -40.8737 110.389
lradius 25.6868
lwrist 42.5155
lhand -12.5836 68.2642
lfingers 7.12502
lthumb -166.505 82.193
rfemur -30.7502 -2.32894 10.6254
rtibia 31.9966
rfoot -10.7954 -7.79344
rtoes -6.71014
lfemur -29.1034 8.40024 -8.26162
ltibia 31.9783
lfoot -13.427 -2.4493
ltoes -22.2634
23
root -7.0745 17.6478 2.02644 -55.2337 87.077 -71.1673
lowerback 1.54923 1.601 -2.32742
upperback 1.97988 2.15943 4.15417
thorax 0.923102 1.05627 5.58453
lowerneck -13.9548 -1.93765 1.00302
upperneck 41.656 0.623735 -3.77326
head 17.7964 0.570257 -1.60157
rclavicle 1.35174e-014 5.80451e-014
rhumerus -5.40451 -1.70334 -102.279
rradius 19.0452
rwrist -32.7225
rhand -15.6782 -9.66972
rfingers 7.12502
rthumb 10.5105 -39.3869
lclavicle 1.35174e-014 5.80451e-014
lhumerus -10.8623 -40.9617 110.279
lradius 25.6515
lwrist 42.4138
lhand -12.5863 68.6157
lfingers 7.12502
lthumb -166.508 81.8413
rfemur -30.7239 -2.36377 10.519
rtibia 31.9838
rfoot -10.6913 -7.74355
rtoes -7.52395
lfemur -29.0253 8.3982 -8.374
ltibia 31.9237
lfoot -13.4102 -2.48989
ltoes -21.9083
24
root -7.07379 17.6476 2.02701 -54.2482 87.0979 -70.1548
lowerback 1.56456 1.64813 -2.34922
upperback 1.98241 2.22084 4.09271
thorax 0.9116 1.0867 5.53099
lowerneck -13.922 -1.94097 1.13284
upperneck 41.6565 0.582935 -3.78483
head 17.7849 0.574229 -1.6374
rclavicle -2.94201e-014 -2.8625e-014
rhumerus -5.50583 -1.49853 -102.287
rradius 19.2855
rwrist -33.1979
rhand -15.8781 -9.90007
rfingers 7.12502
rthumb 10.3178 -39.627
lclavicle -2.94201e-014 -2.8625e-014
lhumerus -10.8895 -41.168 110.207
lradius 25.6742
lwrist 42.3914
lhand -12.4977 68.8448
lfingers 7.12502
lthumb -166.423 81.6179
rfemur -30.7029 -2.42805 10.493
rtibia 31.9696
rfoot -10.5719 -7.73067
rtoes -8.55664
lfemur -28.9557 8.37596 -8.40687
ltibia 31.8736
lfoot -13.3392 -2.43502
ltoes -21.7783
25
root -7.07361 17.6472 2.02565 -54.5931 87.0912 -70.4879
lowerback 1.57308 1.66285 -2.29822
upperback 1.98495 2.24078 4.0777
thorax 0.909549 1.09734 5.48558
lowerneck -13.9171 -1.94044 1.16774
upperneck 41.6761 0.585589 -3.80295
head 17.795 0.57993 -1.65177
rclavicle 4.77083e-015 3.26007e-014
rhumerus -5.54539 -1.38647 -102.306
rradius 19.4274
rwrist -33.4589
rhand -16.0126 -10.0911
rfingers 7.12502
rthumb 10.188 -39.8244
lclavicle 4.77083e-015 3.26007e-014
lhumerus -10.8888 -41.4372 110.129
lradius 25.7363
lwrist 42.6484
lhand -12.431 68.8788
lfingers 7.12502
lthumb -166.358 81.5882
rfemur -30.6799 -2.47163 10.5135
rtibia 31.9441
rfoot -10.6276 -7.75629
rtoes -8.06778
lfemur -28.9342 8.3544 -8.39677
ltibia 31.842
lfoot -13.3166 -2.36133
ltoes -22.1056
26
root -7.07317 17.6486 2.02475 -54.6641 87.0813 -70.5497
lowerback 1.58295 1.66811 -2.30136
upperback 1.98433 2.2483 4.10152
thorax 0.901539 1.10142 5.5119
lowerneck -13.9472 -1.94497 1.10219
upperneck 41.7311 0.6164 -3.81465
head 17.8377 0.58263 -1.64082
rclavicle 1.15295e-014 4.53229e-014
rhumerus -5.58609 -1.21521 -102.302
rradius 19.5363
rwrist -33.6598
rhand -16.0395 -10.2015
rfingers 7.12502
rthumb 10.1621 -39.9361
lclavicle 1.15295e-014 4.53229e-014
lhumerus -10.8297 -41.6008 110.095
lradius 25.7284
lwrist 42.8464
lhand -12.4201 68.9816
lfingers 7.12502
lthumb -166.348 81.4861
rfemur -30.6471 -2.41538 10.5143
rtibia 31.9071
rfoot -10.719 -7.80749
rtoes -7.08707
lfemur -28.9203 8.37778 -8.40011
ltibia 31.8345
lfoot -13.3546 -2.35806
ltoes -22.3931
27
root -7.07328 17.6523 2.02286 -54.8825 87.0938 -70.7632
lowerback 1.58752 1.67426 -2.30085
upperback 1.98964 2.25647 4.09959
thorax 0.903615 1.10542 5.50943
lowerneck -13.9682 -1.9534 1.09971
upperneck 41.7484 0.61874 -3.8408
head 17.8539 0.580316 -1.65261
rclavicle 3.97569e-016 4.77083e-015
rhumerus -5.67815 -0.772079 -102.294
rradius 19.7823
rwrist -34.2023
rhand -16.1958 -10.4138
rfingers 7.12502
rthumb 10.0113 -40.1557
lclavicle 3.97569e-016 4.77083e-015
lhumerus -10.7732 -41.6755 110.041
lradius 25.7287
lwrist 42.8268
lhand -12.5153 69.4198
lfingers 7.12502
lthumb -166.44 81.0417
rfemur -30.6121 -2.35062 10.4869
rtibia 31.8723
rfoot -10.7095 -7.84568
rtoes -7.03471
lfemur -28.9134 8.34305 -8.40103
ltibia 31.8396
lfoot -13.3488 -2.41269
ltoes -21.9387
